<svg xmlns="http://www.w3.org/2000/svg" xmlns:xlink="http://www.w3.org/1999/xlink" id="processonSvg1000" viewBox="121.0 209.0 734.0 259.0" width="734.0" height="259.0"><defs id="ProcessOnDefs1001"/><g id="ProcessOnG1002"><path id="ProcessOnPath1003" d="M121.0 209.0H855.0V468.0H121.0V209.0Z" fill="none"/><g id="ProcessOnG1004"><g id="ProcessOnG1005" transform="matrix(1.0,0.0,0.0,1.0,141.0,229.0)" opacity="1.0"><path id="ProcessOnPath1006" d="M0.0 0.0L119.0 0.0L119.0 191.0L0.0 191.0Z" stroke="#323232" stroke-width="2.0" stroke-dasharray="none" fill="#b1d4ea"/><g id="ProcessOnG1007" transform="matrix(1.0,0.0,0.0,1.0,10.0,5.5)"><text id="ProcessOnText1008" fill="#323232" font-size="16" x="48.5" y="16.4" font-family="Verdana" font-weight="bold" font-style="normal" text-decoration="none" family="Verdana" text-anchor="middle" size="16">Broker 0</text><text id="ProcessOnText1009" fill="#323232" font-size="16" x="48.5" y="36.4" font-family="Verdana" font-weight="bold" font-style="normal" text-decoration="none" family="Verdana" text-anchor="middle" size="16"></text><text id="ProcessOnText1010" fill="#323232" font-size="16" x="48.5" y="56.4" font-family="Verdana" font-weight="bold" font-style="normal" text-decoration="none" family="Verdana" text-anchor="middle" size="16"></text><text id="ProcessOnText1011" fill="#323232" font-size="16" x="48.5" y="76.4" font-family="Verdana" font-weight="bold" font-style="normal" text-decoration="none" family="Verdana" text-anchor="middle" size="16"></text><text id="ProcessOnText1012" fill="#323232" font-size="16" x="48.5" y="96.4" font-family="Verdana" font-weight="bold" font-style="normal" text-decoration="none" family="Verdana" text-anchor="middle" size="16"></text><text id="ProcessOnText1013" fill="#323232" font-size="16" x="48.5" y="116.4" font-family="Verdana" font-weight="bold" font-style="normal" text-decoration="none" family="Verdana" text-anchor="middle" size="16"></text><text id="ProcessOnText1014" fill="#323232" font-size="16" x="48.5" y="136.4" font-family="Verdana" font-weight="bold" font-style="normal" text-decoration="none" family="Verdana" text-anchor="middle" size="16"></text><text id="ProcessOnText1015" fill="#323232" font-size="16" x="48.5" y="156.4" font-family="Verdana" font-weight="bold" font-style="normal" text-decoration="none" family="Verdana" text-anchor="middle" size="16"></text><text id="ProcessOnText1016" fill="#323232" font-size="16" x="48.5" y="176.4" font-family="Verdana" font-weight="bold" font-style="normal" text-decoration="none" family="Verdana" text-anchor="middle" size="16"></text></g></g><g id="ProcessOnG1017" transform="matrix(1.0,0.0,0.0,1.0,153.0,270.0)" opacity="1.0"><path id="ProcessOnPath1018" d="M0.0 0.0L95.0 0.0L95.0 28.0L0.0 28.0Z" stroke="#323232" stroke-width="2.0" stroke-dasharray="none" fill="#f8931f"/><g id="ProcessOnG1019" transform="matrix(1.0,0.0,0.0,1.0,10.0,5.875)"><text id="ProcessOnText1020" fill="#323232" font-size="13" x="36.5" y="13.325" font-family="Comic Sans MS" font-weight="bold" font-style="normal" text-decoration="none" family="Comic Sans MS" text-anchor="middle" size="13">Partition 0</text></g></g><g id="ProcessOnG1021" transform="matrix(1.0,0.0,0.0,1.0,153.0,320.5)" opacity="1.0"><path id="ProcessOnPath1022" d="M0.0 0.0L95.0 0.0L95.0 28.0L0.0 28.0Z" stroke="#323232" stroke-width="2.0" stroke-dasharray="none" fill="#ff99cc"/><g id="ProcessOnG1023" transform="matrix(1.0,0.0,0.0,1.0,10.0,5.875)"><text id="ProcessOnText1024" fill="#323232" font-size="13" x="36.5" y="13.325" font-family="Comic Sans MS" font-weight="bold" font-style="normal" text-decoration="none" family="Comic Sans MS" text-anchor="middle" size="13">Partition 4</text></g></g><g id="ProcessOnG1025" transform="matrix(1.0,0.0,0.0,1.0,153.0,371.0)" opacity="1.0"><path id="ProcessOnPath1026" d="M0.0 0.0L95.0 0.0L95.0 28.0L0.0 28.0Z" stroke="#323232" stroke-width="2.0" stroke-dasharray="none" fill="#ebebeb"/><g id="ProcessOnG1027" transform="matrix(1.0,0.0,0.0,1.0,10.0,5.875)"><text id="ProcessOnText1028" fill="#323232" font-size="13" x="36.5" y="13.325" font-family="Comic Sans MS" font-weight="bold" font-style="normal" text-decoration="none" family="Comic Sans MS" text-anchor="middle" size="13">Partition 3</text></g></g><g id="ProcessOnG1029" transform="matrix(1.0,0.0,0.0,1.0,284.0,229.0)" opacity="1.0"><path id="ProcessOnPath1030" d="M0.0 0.0L119.0 0.0L119.0 191.0L0.0 191.0Z" stroke="#323232" stroke-width="2.0" stroke-dasharray="none" fill="#b1d4ea"/><g id="ProcessOnG1031" transform="matrix(1.0,0.0,0.0,1.0,10.0,5.5)"><text id="ProcessOnText1032" fill="#323232" font-size="16" x="48.5" y="16.4" font-family="Verdana" font-weight="bold" font-style="normal" text-decoration="none" family="Verdana" text-anchor="middle" size="16">Broker 1</text><text id="ProcessOnText1033" fill="#323232" font-size="16" x="48.5" y="36.4" font-family="Verdana" font-weight="bold" font-style="normal" text-decoration="none" family="Verdana" text-anchor="middle" size="16"></text><text id="ProcessOnText1034" fill="#323232" font-size="16" x="48.5" y="56.4" font-family="Verdana" font-weight="bold" font-style="normal" text-decoration="none" family="Verdana" text-anchor="middle" size="16"></text><text id="ProcessOnText1035" fill="#323232" font-size="16" x="48.5" y="76.4" font-family="Verdana" font-weight="bold" font-style="normal" text-decoration="none" family="Verdana" text-anchor="middle" size="16"></text><text id="ProcessOnText1036" fill="#323232" font-size="16" x="48.5" y="96.4" font-family="Verdana" font-weight="bold" font-style="normal" text-decoration="none" family="Verdana" text-anchor="middle" size="16"></text><text id="ProcessOnText1037" fill="#323232" font-size="16" x="48.5" y="116.4" font-family="Verdana" font-weight="bold" font-style="normal" text-decoration="none" family="Verdana" text-anchor="middle" size="16"></text><text id="ProcessOnText1038" fill="#323232" font-size="16" x="48.5" y="136.4" font-family="Verdana" font-weight="bold" font-style="normal" text-decoration="none" family="Verdana" text-anchor="middle" size="16"></text><text id="ProcessOnText1039" fill="#323232" font-size="16" x="48.5" y="156.4" font-family="Verdana" font-weight="bold" font-style="normal" text-decoration="none" family="Verdana" text-anchor="middle" size="16"></text><text id="ProcessOnText1040" fill="#323232" font-size="16" x="48.5" y="176.4" font-family="Verdana" font-weight="bold" font-style="normal" text-decoration="none" family="Verdana" text-anchor="middle" size="16"></text></g></g><g id="ProcessOnG1041" transform="matrix(1.0,0.0,0.0,1.0,296.0,270.0)" opacity="1.0"><path id="ProcessOnPath1042" d="M0.0 0.0L95.0 0.0L95.0 28.0L0.0 28.0Z" stroke="#323232" stroke-width="2.0" stroke-dasharray="none" fill="#009345"/><g id="ProcessOnG1043" transform="matrix(1.0,0.0,0.0,1.0,10.0,5.875)"><text id="ProcessOnText1044" fill="#323232" font-size="13" x="36.5" y="13.325" font-family="Comic Sans MS" font-weight="bold" font-style="normal" text-decoration="none" family="Comic Sans MS" text-anchor="middle" size="13">Partition 1</text></g></g><g id="ProcessOnG1045" transform="matrix(1.0,0.0,0.0,1.0,296.0,320.5)" opacity="1.0"><path id="ProcessOnPath1046" d="M0.0 0.0L95.0 0.0L95.0 28.0L0.0 28.0Z" stroke="#323232" stroke-width="2.0" stroke-dasharray="none" fill="#f8931f"/><g id="ProcessOnG1047" transform="matrix(1.0,0.0,0.0,1.0,10.0,5.875)"><text id="ProcessOnText1048" fill="#323232" font-size="13" x="36.5" y="13.325" font-family="Comic Sans MS" font-weight="bold" font-style="normal" text-decoration="none" family="Comic Sans MS" text-anchor="middle" size="13">Partition 0</text></g></g><g id="ProcessOnG1049" transform="matrix(1.0,0.0,0.0,1.0,296.0,371.0)" opacity="1.0"><path id="ProcessOnPath1050" d="M0.0 0.0L95.0 0.0L95.0 28.0L0.0 28.0Z" stroke="#323232" stroke-width="2.0" stroke-dasharray="none" fill="#ff99cc"/><g id="ProcessOnG1051" transform="matrix(1.0,0.0,0.0,1.0,10.0,5.875)"><text id="ProcessOnText1052" fill="#323232" font-size="13" x="36.5" y="13.325" font-family="Comic Sans MS" font-weight="bold" font-style="normal" text-decoration="none" family="Comic Sans MS" text-anchor="middle" size="13">Partition 4</text></g></g><g id="ProcessOnG1053" transform="matrix(1.0,0.0,0.0,1.0,428.0,229.0)" opacity="1.0"><path id="ProcessOnPath1054" d="M0.0 0.0L119.0 0.0L119.0 191.0L0.0 191.0Z" stroke="#323232" stroke-width="2.0" stroke-dasharray="none" fill="#b1d4ea"/><g id="ProcessOnG1055" transform="matrix(1.0,0.0,0.0,1.0,10.0,5.5)"><text id="ProcessOnText1056" fill="#323232" font-size="16" x="48.5" y="16.4" font-family="Verdana" font-weight="bold" font-style="normal" text-decoration="none" family="Verdana" text-anchor="middle" size="16">Broker 2</text><text id="ProcessOnText1057" fill="#323232" font-size="16" x="48.5" y="36.4" font-family="Verdana" font-weight="bold" font-style="normal" text-decoration="none" family="Verdana" text-anchor="middle" size="16"></text><text id="ProcessOnText1058" fill="#323232" font-size="16" x="48.5" y="56.4" font-family="Verdana" font-weight="bold" font-style="normal" text-decoration="none" family="Verdana" text-anchor="middle" size="16"></text><text id="ProcessOnText1059" fill="#323232" font-size="16" x="48.5" y="76.4" font-family="Verdana" font-weight="bold" font-style="normal" text-decoration="none" family="Verdana" text-anchor="middle" size="16"></text><text id="ProcessOnText1060" fill="#323232" font-size="16" x="48.5" y="96.4" font-family="Verdana" font-weight="bold" font-style="normal" text-decoration="none" family="Verdana" text-anchor="middle" size="16"></text><text id="ProcessOnText1061" fill="#323232" font-size="16" x="48.5" y="116.4" font-family="Verdana" font-weight="bold" font-style="normal" text-decoration="none" family="Verdana" text-anchor="middle" size="16"></text><text id="ProcessOnText1062" fill="#323232" font-size="16" x="48.5" y="136.4" font-family="Verdana" font-weight="bold" font-style="normal" text-decoration="none" family="Verdana" text-anchor="middle" size="16"></text><text id="ProcessOnText1063" fill="#323232" font-size="16" x="48.5" y="156.4" font-family="Verdana" font-weight="bold" font-style="normal" text-decoration="none" family="Verdana" text-anchor="middle" size="16"></text><text id="ProcessOnText1064" fill="#323232" font-size="16" x="48.5" y="176.4" font-family="Verdana" font-weight="bold" font-style="normal" text-decoration="none" family="Verdana" text-anchor="middle" size="16"></text></g></g><g id="ProcessOnG1065" transform="matrix(1.0,0.0,0.0,1.0,440.0,270.0)" opacity="1.0"><path id="ProcessOnPath1066" d="M0.0 0.0L95.0 0.0L95.0 28.0L0.0 28.0Z" stroke="#323232" stroke-width="2.0" stroke-dasharray="none" fill="#c2272d"/><g id="ProcessOnG1067" transform="matrix(1.0,0.0,0.0,1.0,10.0,5.875)"><text id="ProcessOnText1068" fill="#323232" font-size="13" x="36.5" y="13.325" font-family="Comic Sans MS" font-weight="bold" font-style="normal" text-decoration="none" family="Comic Sans MS" text-anchor="middle" size="13">Partition 2</text></g></g><g id="ProcessOnG1069" transform="matrix(1.0,0.0,0.0,1.0,440.0,320.5)" opacity="1.0"><path id="ProcessOnPath1070" d="M0.0 0.0L95.0 0.0L95.0 28.0L0.0 28.0Z" stroke="#323232" stroke-width="2.0" stroke-dasharray="none" fill="#009345"/><g id="ProcessOnG1071" transform="matrix(1.0,0.0,0.0,1.0,10.0,5.875)"><text id="ProcessOnText1072" fill="#323232" font-size="13" x="36.5" y="13.325" font-family="Comic Sans MS" font-weight="bold" font-style="normal" text-decoration="none" family="Comic Sans MS" text-anchor="middle" size="13">Partition 1</text></g></g><g id="ProcessOnG1073" transform="matrix(1.0,0.0,0.0,1.0,440.0,371.0)" opacity="1.0"><path id="ProcessOnPath1074" d="M0.0 0.0L95.0 0.0L95.0 28.0L0.0 28.0Z" stroke="#323232" stroke-width="2.0" stroke-dasharray="none" fill="#f8931f"/><g id="ProcessOnG1075" transform="matrix(1.0,0.0,0.0,1.0,10.0,5.875)"><text id="ProcessOnText1076" fill="#323232" font-size="13" x="36.5" y="13.325" font-family="Comic Sans MS" font-weight="bold" font-style="normal" text-decoration="none" family="Comic Sans MS" text-anchor="middle" size="13">Partition 0</text></g></g><g id="ProcessOnG1077" transform="matrix(1.0,0.0,0.0,1.0,573.0,229.0)" opacity="1.0"><path id="ProcessOnPath1078" d="M0.0 0.0L119.0 0.0L119.0 191.0L0.0 191.0Z" stroke="#323232" stroke-width="2.0" stroke-dasharray="none" fill="#b1d4ea"/><g id="ProcessOnG1079" transform="matrix(1.0,0.0,0.0,1.0,10.0,5.5)"><text id="ProcessOnText1080" fill="#323232" font-size="16" x="48.5" y="16.4" font-family="Verdana" font-weight="bold" font-style="normal" text-decoration="none" family="Verdana" text-anchor="middle" size="16">Broker 3</text><text id="ProcessOnText1081" fill="#323232" font-size="16" x="48.5" y="36.4" font-family="Verdana" font-weight="bold" font-style="normal" text-decoration="none" family="Verdana" text-anchor="middle" size="16"></text><text id="ProcessOnText1082" fill="#323232" font-size="16" x="48.5" y="56.4" font-family="Verdana" font-weight="bold" font-style="normal" text-decoration="none" family="Verdana" text-anchor="middle" size="16"></text><text id="ProcessOnText1083" fill="#323232" font-size="16" x="48.5" y="76.4" font-family="Verdana" font-weight="bold" font-style="normal" text-decoration="none" family="Verdana" text-anchor="middle" size="16"></text><text id="ProcessOnText1084" fill="#323232" font-size="16" x="48.5" y="96.4" font-family="Verdana" font-weight="bold" font-style="normal" text-decoration="none" family="Verdana" text-anchor="middle" size="16"></text><text id="ProcessOnText1085" fill="#323232" font-size="16" x="48.5" y="116.4" font-family="Verdana" font-weight="bold" font-style="normal" text-decoration="none" family="Verdana" text-anchor="middle" size="16"></text><text id="ProcessOnText1086" fill="#323232" font-size="16" x="48.5" y="136.4" font-family="Verdana" font-weight="bold" font-style="normal" text-decoration="none" family="Verdana" text-anchor="middle" size="16"></text><text id="ProcessOnText1087" fill="#323232" font-size="16" x="48.5" y="156.4" font-family="Verdana" font-weight="bold" font-style="normal" text-decoration="none" family="Verdana" text-anchor="middle" size="16"></text><text id="ProcessOnText1088" fill="#323232" font-size="16" x="48.5" y="176.4" font-family="Verdana" font-weight="bold" font-style="normal" text-decoration="none" family="Verdana" text-anchor="middle" size="16"></text></g></g><g id="ProcessOnG1089" transform="matrix(1.0,0.0,0.0,1.0,585.0,270.0)" opacity="1.0"><path id="ProcessOnPath1090" d="M0.0 0.0L95.0 0.0L95.0 28.0L0.0 28.0Z" stroke="#323232" stroke-width="2.0" stroke-dasharray="none" fill="#ebebeb"/><g id="ProcessOnG1091" transform="matrix(1.0,0.0,0.0,1.0,10.0,5.875)"><text id="ProcessOnText1092" fill="#323232" font-size="13" x="36.5" y="13.325" font-family="Comic Sans MS" font-weight="bold" font-style="normal" text-decoration="none" family="Comic Sans MS" text-anchor="middle" size="13">Partition 3</text></g></g><g id="ProcessOnG1093" transform="matrix(1.0,0.0,0.0,1.0,585.0,320.5)" opacity="1.0"><path id="ProcessOnPath1094" d="M0.0 0.0L95.0 0.0L95.0 28.0L0.0 28.0Z" stroke="#323232" stroke-width="2.0" stroke-dasharray="none" fill="#c2272d"/><g id="ProcessOnG1095" transform="matrix(1.0,0.0,0.0,1.0,10.0,5.875)"><text id="ProcessOnText1096" fill="#323232" font-size="13" x="36.5" y="13.325" font-family="Comic Sans MS" font-weight="bold" font-style="normal" text-decoration="none" family="Comic Sans MS" text-anchor="middle" size="13">Partition 2</text></g></g><g id="ProcessOnG1097" transform="matrix(1.0,0.0,0.0,1.0,585.0,371.0)" opacity="1.0"><path id="ProcessOnPath1098" d="M0.0 0.0L95.0 0.0L95.0 28.0L0.0 28.0Z" stroke="#323232" stroke-width="2.0" stroke-dasharray="none" fill="#009345"/><g id="ProcessOnG1099" transform="matrix(1.0,0.0,0.0,1.0,10.0,5.875)"><text id="ProcessOnText1100" fill="#323232" font-size="13" x="36.5" y="13.325" font-family="Comic Sans MS" font-weight="bold" font-style="normal" text-decoration="none" family="Comic Sans MS" text-anchor="middle" size="13">Partition 1</text></g></g><g id="ProcessOnG1101" transform="matrix(1.0,0.0,0.0,1.0,716.0,229.0)" opacity="1.0"><path id="ProcessOnPath1102" d="M0.0 0.0L119.0 0.0L119.0 191.0L0.0 191.0Z" stroke="#323232" stroke-width="2.0" stroke-dasharray="none" fill="#b1d4ea"/><g id="ProcessOnG1103" transform="matrix(1.0,0.0,0.0,1.0,10.0,5.5)"><text id="ProcessOnText1104" fill="#323232" font-size="16" x="48.5" y="16.4" font-family="Verdana" font-weight="bold" font-style="normal" text-decoration="none" family="Verdana" text-anchor="middle" size="16">Broker 4</text><text id="ProcessOnText1105" fill="#323232" font-size="16" x="48.5" y="36.4" font-family="Verdana" font-weight="bold" font-style="normal" text-decoration="none" family="Verdana" text-anchor="middle" size="16"></text><text id="ProcessOnText1106" fill="#323232" font-size="16" x="48.5" y="56.4" font-family="Verdana" font-weight="bold" font-style="normal" text-decoration="none" family="Verdana" text-anchor="middle" size="16"></text><text id="ProcessOnText1107" fill="#323232" font-size="16" x="48.5" y="76.4" font-family="Verdana" font-weight="bold" font-style="normal" text-decoration="none" family="Verdana" text-anchor="middle" size="16"></text><text id="ProcessOnText1108" fill="#323232" font-size="16" x="48.5" y="96.4" font-family="Verdana" font-weight="bold" font-style="normal" text-decoration="none" family="Verdana" text-anchor="middle" size="16"></text><text id="ProcessOnText1109" fill="#323232" font-size="16" x="48.5" y="116.4" font-family="Verdana" font-weight="bold" font-style="normal" text-decoration="none" family="Verdana" text-anchor="middle" size="16"></text><text id="ProcessOnText1110" fill="#323232" font-size="16" x="48.5" y="136.4" font-family="Verdana" font-weight="bold" font-style="normal" text-decoration="none" family="Verdana" text-anchor="middle" size="16"></text><text id="ProcessOnText1111" fill="#323232" font-size="16" x="48.5" y="156.4" font-family="Verdana" font-weight="bold" font-style="normal" text-decoration="none" family="Verdana" text-anchor="middle" size="16"></text><text id="ProcessOnText1112" fill="#323232" font-size="16" x="48.5" y="176.4" font-family="Verdana" font-weight="bold" font-style="normal" text-decoration="none" family="Verdana" text-anchor="middle" size="16"></text></g></g><g id="ProcessOnG1113" transform="matrix(1.0,0.0,0.0,1.0,728.0,270.0)" opacity="1.0"><path id="ProcessOnPath1114" d="M0.0 0.0L95.0 0.0L95.0 28.0L0.0 28.0Z" stroke="#323232" stroke-width="2.0" stroke-dasharray="none" fill="#ff99cc"/><g id="ProcessOnG1115" transform="matrix(1.0,0.0,0.0,1.0,10.0,5.875)"><text id="ProcessOnText1116" fill="#323232" font-size="13" x="36.5" y="13.325" font-family="Comic Sans MS" font-weight="bold" font-style="normal" text-decoration="none" family="Comic Sans MS" text-anchor="middle" size="13">Partition 4</text></g></g><g id="ProcessOnG1117" transform="matrix(1.0,0.0,0.0,1.0,728.0,320.5)" opacity="1.0"><path id="ProcessOnPath1118" d="M0.0 0.0L95.0 0.0L95.0 28.0L0.0 28.0Z" stroke="#323232" stroke-width="2.0" stroke-dasharray="none" fill="#ebebeb"/><g id="ProcessOnG1119" transform="matrix(1.0,0.0,0.0,1.0,10.0,5.875)"><text id="ProcessOnText1120" fill="#323232" font-size="13" x="36.5" y="13.325" font-family="Comic Sans MS" font-weight="bold" font-style="normal" text-decoration="none" family="Comic Sans MS" text-anchor="middle" size="13">Partition 3</text></g></g><g id="ProcessOnG1121" transform="matrix(1.0,0.0,0.0,1.0,728.0,371.0)" opacity="1.0"><path id="ProcessOnPath1122" d="M0.0 0.0L95.0 0.0L95.0 28.0L0.0 28.0Z" stroke="#323232" stroke-width="2.0" stroke-dasharray="none" fill="#c2272d"/><g id="ProcessOnG1123" transform="matrix(1.0,0.0,0.0,1.0,10.0,5.875)"><text id="ProcessOnText1124" fill="#323232" font-size="13" x="36.5" y="13.325" font-family="Comic Sans MS" font-weight="bold" font-style="normal" text-decoration="none" family="Comic Sans MS" text-anchor="middle" size="13">Partition 2</text></g></g><g id="ProcessOnG1125" transform="matrix(1.0,0.0,0.0,1.0,179.0,428.0)" opacity="1.0"><path id="ProcessOnPath1126" d="M0.0 0.0L617.0 0.0L617.0 20.0L0.0 20.0Z" stroke="none" stroke-width="0.0" stroke-dasharray="none" fill="none"/><g id="ProcessOnG1127" transform="matrix(1.0,0.0,0.0,1.0,0.0,1.875)"><text id="ProcessOnText1128" fill="#000000" font-size="13" x="307.5" y="13.325" font-family="Comic Sans MS" font-weight="bold" font-style="normal" text-decoration="none" family="Comic Sans MS" text-anchor="middle" size="13">如果想及时了解Spark、Hadoop或者Hbase相关的文章，欢迎关注微信公共帐号：iteblog_hadoop</text></g></g></g></g></svg>